<?xml version="1.0" encoding="utf-8"?>
<!-- Generator: Adobe Illustrator 22.0.1, SVG Export Plug-In . SVG Version: 6.00 Build 0)  -->
<svg version="1.1" id="Layer_1" xmlns="http://www.w3.org/2000/svg" xmlns:xlink="http://www.w3.org/1999/xlink" x="0px" y="0px"
	 viewBox="0 0 900 450" style="enable-background:new 0 0 900 450;" xml:space="preserve">
<style type="text/css">
	.st0{fill:#E8EAEE;}
	.st1{fill:none;stroke:#D9DDE3;stroke-width:1.9946;stroke-miterlimit:10;}
	.st2{fill:#F6F8FA;}
	.st3{fill:#F0F1F2;}
	.st4{fill:#959DA5;}
	.st5{fill:none;stroke:#6A737D;stroke-width:0.7495;stroke-miterlimit:10;}
	.st6{fill:#E1E4E8;}
	.st7{fill:#D1D5DA;stroke:#FAFBFC;stroke-width:0.9993;stroke-miterlimit:10;}
	.st8{fill:#D1D5DA;}
	.st9{fill:#79B8FF;}
	.st10{fill:#2188FF;}
	.st11{fill:#C8E1FF;}
	.st12{fill:#6A737D;}
	.st13{fill:#0366D6;}
	.st14{fill:#FFD1AC;}
	.st15{fill:#FFAB70;}
	.st16{fill:#FFEBDA;}
	.st17{fill:#FFF5B1;}
	.st18{fill:#FB8532;}
	.st19{fill:none;stroke:#0366D6;stroke-width:2;stroke-miterlimit:10;}
	.st20{fill:none;stroke:#0366D6;stroke-width:2;stroke-linecap:round;stroke-miterlimit:10;}
	.st21{fill:#FFDF5D;}
	.st22{fill:#F9C513;}
</style>
<ellipse class="st0" cx="530.8" cy="376.3" rx="67" ry="9"/>
<line class="st1" x1="879.4" y1="360.2" x2="61" y2="360.2"/>
<rect x="559.1" y="312.9" class="st2" width="319" height="53.6"/>
<path class="st3" d="M561.3,313.5c11.1,6.3,24.3,9.3,37.4,8.5c13-0.8,25.8-5.2,38.8-4.1c10,0.9,19.3,5.1,28.9,7.8
	c11.4,3.2,23.5,4.4,35.4,3.4c20.6-1.7,41.2-9.6,61.2-4.8c7.3,1.7,14.1,5.1,21.1,7.6c24.6,8.8,53.7,6.5,76.3-6
	c6.4-3.6,12.5-8.1,16.1-14.2"/>
<polygon class="st2" points="849.5,288.8 584.7,288.8 552.1,299.3 878.8,299.3 "/>
<polygon class="st4" points="707.3,290.3 601.7,290.3 585.9,295.6 702.3,295.6 "/>
<path class="st0" d="M585.9,295.6l15.9-5.3h-12.2l-16.2,5C573.4,295.3,586.1,295.9,585.9,295.6z"/>
<line class="st5" x1="609.6" y1="291" x2="599.4" y2="294.9"/>
<line class="st5" x1="625.1" y1="291" x2="614.9" y2="294.9"/>
<line class="st5" x1="640.6" y1="291" x2="630.4" y2="294.9"/>
<line class="st5" x1="656.1" y1="291" x2="645.8" y2="294.9"/>
<line class="st5" x1="671.6" y1="291" x2="661.3" y2="294.9"/>
<line class="st5" x1="687.1" y1="291" x2="676.8" y2="294.9"/>
<line class="st5" x1="702.6" y1="291" x2="692.3" y2="294.9"/>
<polygon class="st6" points="552.7,314.3 878.2,313.7 878.9,299.6 552.7,299.3 "/>
<polygon class="st7" points="718.5,293.5 692.6,293 692.8,290.3 720.6,290.6 "/>
<rect x="612.8" y="273.7" class="st6" width="11.6" height="17.7"/>
<path class="st8" d="M621.4,274.3c-0.8,3-5.1,11.4-5.1,11.4l7.8-0.1l0.4-11.9L621.4,274.3z"/>
<polygon class="st0" points="621.9,293.2 591,293.2 591,285.2 621.9,284.6 "/>
<polygon class="st8" points="621.9,293.2 631.4,291.2 630.9,283.6 621.9,284.6 "/>
<polygon class="st2" points="591,285.2 606.5,283.4 630.9,283.6 621.9,284.6 "/>
<rect x="593.8" y="286.5" class="st2" width="16.3" height="5"/>
<rect x="612.5" y="286.5" class="st2" width="5.1" height="5"/>
<polygon class="st0" points="660.3,293.1 630,292.2 629.7,250 659.1,250 "/>
<polygon class="st6" points="665.5,290.6 659.8,293.4 658.7,249.7 665.5,247 "/>
<polygon class="st0" points="664.5,255.9 661.1,257.6 661.1,252.9 664.5,251.3 "/>
<polygon class="st0" points="664.4,288.1 661.2,289.7 661.2,261.2 664.4,259.6 "/>
<polygon class="st2" points="665.5,247 658.5,250.2 629.7,250 638.1,247.8 "/>
<rect x="631.9" y="252.6" class="st2" width="25.8" height="4.8"/>
<path class="st2" d="M648.3,265.4c-3.5-1.6-11.4,0.5-11.4,6.1s3.8,9.9,8.7,8.8c4.8-1,7.3-5,7.1-7.6c-1,1-1.9,1-2.6,0.3
	c-0.7-0.7,0.2-2.8,0.2-2.8s-1.9,1.2-2.4-0.2c-0.5-1.4,0.5-2.8,0.5-2.8s-2.1,0.5-2.1-0.3S648.3,265.4,648.3,265.4z"/>
<path class="st6" d="M645.2,278.9c-4.6,1-7.2-4.3-8.1-8.6c-0.1,0.4-0.2,0.8-0.2,1.2c0,5.5,3.8,9.9,8.7,8.8c3.9-0.8,6.3-3.6,6.9-6
	C651.4,275.6,648.9,278.1,645.2,278.9z"/>
<ellipse class="st0" cx="646.8" cy="273.8" rx="0.4" ry="0.5"/>
<ellipse class="st0" cx="642" cy="267.9" rx="0.5" ry="0.6"/>
<ellipse class="st0" cx="642.1" cy="275.8" rx="0.4" ry="0.4"/>
<circle class="st0" cx="643.3" cy="271.8" r="0.5"/>
<path class="st6" d="M660.3,293.1c-0.5-0.5-0.8-1.1-1.1-1.7c-0.5-1.2-0.9-2.5-1.6-3.6c-1.9-3.1-6.3-3.8-9.7-2.4
	c-1.5,0.6-2.9,1.6-4.6,1.8c-1.9,0.2-3.8-0.7-4.8-2.3c-0.9-1.5-1-3.3-1.8-4.9c-1.2-2.6-4.2-3.9-7-3.7l0.3,15.9L660.3,293.1
	L660.3,293.1z"/>
<ellipse transform="matrix(7.447221e-02 -0.9972 0.9972 7.447221e-02 299.5544 870.4724)" class="st0" cx="618.7" cy="273.9" rx="1.4" ry="5.9"/>
<g>
	<polygon class="st9" points="708,271.4 656.6,271.4 642.3,245.8 695.6,245.8 	"/>
	<polygon class="st9" points="702.9,298.3 648.7,297.2 648.7,279.6 702.9,280.7 	"/>
	<polygon class="st10" points="702.8,298.3 707.7,293.2 707.8,276.7 702.8,280.7 	"/>
	<polygon class="st11" points="648.7,279.6 663.5,276.3 707.9,276.7 702.9,280.7 	"/>
	<polygon class="st10" points="708,271.4 709.8,268.2 696.8,242.4 695.6,245.8 	"/>
	<polygon class="st11" points="696.8,242.4 645.1,242.4 642.3,245.8 695.6,245.8 	"/>
	<polygon class="st10" points="685.1,262.5 669.7,262.5 668.1,259.7 683.6,259.7 	"/>
	<rect x="670.9" y="260.3" class="st4" width="10.9" height="19.2"/>
	<polygon class="st12" points="681.7,260.3 683.2,262.3 683.2,278.8 681.7,279.5 	"/>
	<path class="st10" d="M702.9,298.3V286c-2-0.5-4.3,0.4-6.1,1.7c-2.2,1.6-4.1,3.7-6.6,4.6c-1.8,0.6-3.7,0.6-5.6,0.4
		c-4.3-0.4-8.6-1.5-12.9-1.8c-4.3-0.3-8.9,0.2-12.5,2.7c-1.6,1.1-3.1,2.7-4.7,3.7L702.9,298.3z"/>
	<path class="st13" d="M707.7,288.6c-0.6,0.4-1.3,0.7-1.9,0.8c-1.4,0.2-2.2-2.9-3.1-3.4v12.4l4.9-5.1L707.7,288.6z"/>
	<polygon class="st12" points="697.3,268.1 695.8,268.1 694.1,264.7 695.5,264.7 	"/>
	<polygon class="st12" points="700.5,268.1 699.1,268.1 697.3,264.7 698.7,264.7 	"/>
</g>
<g>
	<rect x="703.8" y="285.6" class="st14" width="22.7" height="12.1"/>
	<polygon class="st15" points="728.9,295.3 726.2,297.7 726.2,285.6 728.9,284.6 	"/>
	<polygon class="st16" points="728.9,284.6 726.2,285.6 703.8,285.6 708.8,284.6 	"/>
	<rect x="710" y="284.9" class="st15" width="13.5" height="0.3"/>
	<path class="st17" d="M711,284.9c1.9-5.3-3.6-12.3-6-12.6h15.3c4.6,3.2,2.3,12.6,2.3,12.6S710.9,285.3,711,284.9z"/>
	<polygon class="st14" points="720.1,274.6 710.6,274.6 709.9,274.1 719.4,274.1 	"/>
	<polygon class="st14" points="720.6,276.8 711.9,276.8 711.3,276.1 720.2,276.1 	"/>
	<polygon class="st14" points="716.6,279 712.9,279 712.6,278.3 716.4,278.3 	"/>
	<polygon class="st14" points="716.4,281.5 713.3,281.5 713.3,280.7 716.3,280.7 	"/>
	<polygon class="st14" points="717.6,283.5 713.2,283.5 713.2,282.8 717.6,282.8 	"/>
	<path class="st18" d="M728.8,289.2c-0.3,0.4-0.3,1.1-0.5,1.6s-0.8,1-1.3,0.7c-0.2-0.1-0.3-0.4-0.4-0.6c-0.1-0.1-0.2-0.3-0.3-0.4
		v7.2l2.6-2.3L728.8,289.2C728.8,289.1,728.8,289.2,728.8,289.2z"/>
	<path class="st15" d="M726.5,290.8c-0.6-0.8-1.9-0.8-2.8-0.2c-0.9,0.6-1.5,1.5-2.2,2.3c-1.7,2-4.3,3.2-7,3.2c-2.6,0-5.2-1-7.8-0.6
		c-0.5,0.1-1.8,0.5-2.8,1.1v1.1h22.7v-6.9H726.5z"/>
</g>
<path class="st19" d="M804.6,254.3c12.7-5.3,20.7-20.9,22.4-31.2c1.5-9.1,0.7-15.5-0.9-20.1c0.8-5.6-3.5-17.9-9.5-18.9
	c-8.3,0-14.8,6.5-16.7,9.2"/>
<path class="st19" d="M809.9,190.3c1.9-2.4,5-1.5,6.3-1s3.4,7.6,0.7,19"/>
<path class="st19" d="M812.9,184c-7-8.3-25.2-9.7-33.9-8.4c-8.6,1.4-28.1,8.9-31.6,22.7s1.1,28.4,3.8,32.9
	c-4.9,4.9-1.6,13.8,3.2,18.9c4.9,5.1,22.5,10,30.6,9.9c7.1-0.1,10.7-1.8,10.7-1.8"/>
<path class="st19" d="M757.6,238.6c-0.3,1.9,5.2,5.1,6.2,2.3S758.6,235.8,757.6,238.6z"/>
<path class="st19" d="M746.6,201.3c2.2,3.5,6.5,7.8,12.4,7.8s16.2-4.9,23.2-3.5s15.1,6.8,15.7,17.8c0.5,10.5-4.5,13.9-7.9,19.1
	c-0.3,0.5,1.1,1.7,1.4,2.2c3,5,1.3,6.1,0.2,9.1c-1.1,3.2-8.1,6.8-13.5,5.4"/>
<path class="st19" d="M806,244.2c5.7-3.5,17.6-2.2,19.7-0.5"/>
<path class="st19" d="M806,246.9c4.3-0.3,10.3,4.1,12.4,7.6"/>
<path class="st19" d="M749.9,233.1c-3.2-3.8-7.6-5.1-11.1-4.6"/>
<path class="st19" d="M748.2,236.4c-3.5-1.9-4.6-2.4-7-1.9"/>
<path class="st20" d="M749.9,233.1c-3.2-3.8-7.6-5.1-11.1-4.6"/>
<path class="st20" d="M748.2,236.4c-3.5-1.9-4.6-2.4-7-1.9"/>
<path class="st19" d="M798.4,262.9c4.3,4.5,7.8,12.9,9.3,18"/>
<path class="st19" d="M811.7,281.5c-10.3,1.4-19.4-4.9-34.3-4.1c-11.3,0.6-22.7,8.1-21.6,13.2c-1.9-0.8-5.4,0-4.3,2.7
	c1.1,2.7,14.9,2.7,28.6,2.7s40.2-2.4,42.6-6.2c2.4-3.8-4.9-18.7-9.2-25.1c-4.7-7-13.9-16.7-17.7-12.7c-2.7,2.7,0.7,5.6,0.4,8.3"/>
<path class="st19" d="M799.2,263.6c1,4.8,0.9,6.8,1.7,16.5"/>
<path class="st19" d="M788.7,264.9c0,4.8-2.2,12.3-2.2,12.3"/>
<path class="st19" d="M783.2,260.4c-0.5,5.2-8.9,15.6-11.8,18"/>
<path class="st19" d="M777.1,259.1c-5.7,3.8-24,5.4-28.6-5.2c-4.6-10.5-3.5-26.5-8.9-34.6c-5.4-8.1-22-12-30.6-2.5
	s-2.9,19.6-2.9,22.1c0,2.4-4.6,6.2-2.2,8.9c2.4,2.7,6-3.7,11.2-7.2s15.8-7.2,20.7-4"/>
<path class="st19" d="M733.4,235.3c2.2,3.2,3,7,0.3,8.1s-6.2-4.9-6.5-7.8"/>
<path class="st19" d="M735,251.2c2.6-1.7,10.5,11.6,7.7,15C740,269.6,729.8,254.6,735,251.2z"/>
<path class="st19" d="M719.1,237.7c3,1.6,4.7,8.6,7.6,15.1c3.3,7.4,5.9,19.4,22.4,20.8s30.7-7,34-11.4"/>
<path class="st19" d="M760.9,273.1c-3.2-2.4-14.3-5.7-11.9,0.5"/>
<path class="st19" d="M769.9,177.8c-7.3-1.4-21.3,0.8-23.2,3.5s1.9,9.2,2.7,10.8"/>
<path class="st19" d="M750.4,183.2c2.4,0,5.9,2.4,5.9,2.4"/>
<path class="st20" d="M819.9,242.2c2.8,0.3,5,0.9,5.8,1.5"/>
<path class="st20" d="M814.9,250.6c1.5,1.2,2.8,2.6,3.6,3.9"/>
<path class="st21" d="M620.4,215.2c-4.1-4.8-10.4-9.1-10.4-9.1l6.3-11.9c0,0,9.2,6,9.2,16.9"/>
<ellipse transform="matrix(0.9832 -0.1825 0.1825 0.9832 -27.9365 117.0107)" class="st15" cx="621.8" cy="210.3" rx="2.9" ry="2.7"/>
<path class="st21" d="M626.7,210.6c0.8-5.4,1.3-16.1-0.2-18.5l13.7-0.8c0,0-0.5,11.3-6.2,19.9L626.7,210.6z"/>
<ellipse transform="matrix(0.3004 -0.9538 0.9538 0.3004 243.5951 747.7538)" class="st15" cx="631.5" cy="207.8" rx="4.1" ry="2.3"/>
<path class="st19" d="M499.4,208.5c-1-0.7-2-1.5-3.5-1s-7,8.7-3.7,19.2"/>
<path class="st19" d="M562.1,207.6c-2-2.7-6-4.1-7.8-2.8c-1.7,1.2-3.7,8.5-12,14c-8.2,5.5-22.2,2.5-27.5,5c-5.2,2.5-9,9-6.2,22.2
	c2.8,13.2,11.5,13.5,12.7,16s-1.5,6.2-1,9c0.5,2.7,5.7,8,11.2,7.7"/>
<path class="st19" d="M554.7,250.5c1.3,1.4,7.4-1.5,6.5-3.9S553.3,247.6,554.7,250.5z"/>
<path class="st19" d="M571.3,237c1.2-4.5,4-8.5,7.2-9.2"/>
<path class="st19" d="M573.5,240.8c2.2-3.2,7.2-3.5,8.5-3.2"/>
<path class="st20" d="M571.2,236.8c1.2-4.5,4.1-8.2,7.3-9"/>
<path class="st20" d="M573.5,240.8c2.2-3.2,7.2-3.5,8.5-3.2"/>
<path class="st19" d="M539.3,192.8c3.2-3,14.5-7.7,18.5-5.5s3.7,14.7,2.2,18.7"/>
<path class="st19" d="M550.8,198.5c1-4.2,3.7-7.5,5-7.7"/>
<path class="st20" d="M503.3,266.8c-4,0.7-7.1,2.3-8.7,3.5"/>
<path class="st20" d="M506.2,271.4c-2.3,1.2-4.4,3.2-5.3,5.4"/>
<path class="st19" d="M612.4,247.3c-6.3,6-33.3,16.3-50,19.3"/>
<path class="st19" d="M631.3,246.8c-6.7,0.2-18-0.7-20-15.5c-2-14.7,12-20,18-20.5s15-1,18.2,13s-0.1,23.1-6.5,30.1
	c-7.1,7.9-32.5,20.8-82.6,19.7"/>
<path class="st19" d="M612,234.8c-2.7,2.7-3.7,8.5-1.5,11.2c1.5,2,6,2.7,10.2-0.2"/>
<path class="st19" d="M627.4,246.8c-4,4.2-18.4,14-21.6,9.9c-1.7-2.2,11.3-7.7,11.7-9.3"/>
<path class="st19" d="M598.4,260.8c1.5,2.4-6,5.9-10.5,7.1c-4.7,1.2-14.2,2-14.3,0.3c-0.2-1.5,7.5-3.3,12.9-4.9
	C591.2,261.8,597.2,259,598.4,260.8z"/>
<path class="st19" d="M555.8,271.5c3.7,4.5,18.7,8.7,27.7,10c9,1.2,13.2,11.1,11.2,15.7c-0.7,1.7-4,2.7-6,6c-2,3.2-4.7,9.2-6.2,17.2
	s0,22.5-5.2,22s-4.7-2.5-5-4.5"/>
<path class="st19" d="M580.5,291.5c-6,1.2-23.2,10.5-21.5,26.7s11.5,19.7,16,19.7"/>
<path class="st19" d="M572,295c-4.5-1.5-14.6-9.6-16.6-15.1"/>
<path class="st19" d="M553.1,276.6c3.7,4.2,9.5,17.2,9,27.9"/>
<path class="st19" d="M567.1,334.5c0,6.7-0.7,12-1.7,15"/>
<path class="st19" d="M558.6,347.7c4.2,0.7,21.5,5.5,22.5,18"/>
<path class="st19" d="M531.2,278.6c-5.7,3-19.4,9.3-25.7,16.3c-5.7,6.3-7.8,13-3.2,20.5"/>
<path class="st19" d="M530.4,290.2c2.7-4.7,5.6-8.4,9.3-10.7"/>
<path class="st19" d="M545.4,321.5c-1.3,6.7-2.7,14.8-5.3,22.3c-5.7,16.3-5.2,24.8-4,28.3s13.8,4.9,22.3,5.7
	c8,0.7,18.4,0.1,23.6-3.4c5.2-3.5,6.7-7.2,4-8.7c-5.7-3.2-9.1,9.6-16.6,11.8"/>
<path class="st19" d="M546.1,278.9c2,5,2.2,14.1,2,21"/>
<path class="st19" d="M545.2,322.5c-2.7,7.7-8.4,19-14.1,28.3c-5.8,9.6-14.4,22.4-17.3,23.7c-9,3.7-25.9,6-34.3,5.3
	c-4.8-0.4-5.2-5.1-1.7-6.3c3.5-1.2,7.8,5.9,14.3,5.7"/>
<path class="st19" d="M481.6,372.9"/>
<path class="st19" d="M481.5,373.8c0-5.7,3-16.4,9-21c4.3-3.3,14.4-6.2,19.1-4.7"/>
<path class="st19" d="M509.6,340.4c-1.7,3.5-5,7-5,7"/>
<path class="st21" d="M496.1,317.7c1.5-4.5,19.5-2.5,22-2.5s10,0.5,12.5,2s-2.5,27-2.5,27s-10,1-12.5,0.5s-21-3-22.5-6
	C491.6,335.7,496.1,317.7,496.1,317.7z"/>
<path class="st15" d="M522.1,315.5c-6.5,1.7-12.7,15.7-18.5,15.2c-3.5-0.3-7-11.5-7.5-13s0-4,3.7-3.5
	C503.6,314.7,522.1,315.5,522.1,315.5z"/>
<path class="st22" d="M492.8,336.5c6,6,21,5.8,25,4.3s3.8-23.7,3.8-25.1c0,0,7,0,9,1.5s-0.5,24-2.5,27s-7.5,0.5-12.5,0.5
	s-22-3.5-22.5-6C492.6,336.2,492.8,336.5,492.8,336.5z"/>
<path class="st19" d="M558.1,273.2"/>
<path class="st15" d="M529.6,321.7c19.5-19,24.5-49.8,24.5-49.8l-3.5,1.2c-5.5,18.5-23,38.1-28,44.6L529.6,321.7"/>
<path class="st18" d="M522.6,317.7c0,0-1.2,9,1.3,10s5.7-6,5.7-6L522.6,317.7z"/>
<path class="st19" d="M516.6,295c7-4.2,18-7.7,24.7-2.7s11.8,16.7,7.4,25c-2.7,5-6.7,7-9.3,7"/>
<path class="st19" d="M522.4,315.2c6.7-2.7,8.4,4.2,10.3,10.7c1.7,5.7,9.7,3,9.3-1.7"/>
<circle class="st15" cx="525" cy="325" r="1.1"/>
<ellipse transform="matrix(0.1631 -0.9866 0.9866 0.1631 98.0793 771.624)" class="st18" cx="503.9" cy="328" rx="1.6" ry="1.1"/>
<path class="st19" d="M497.8,204c8.3-8.7,21.2-14.1,38-12.3c8.7,0.9,18.9,8,24.6,14c8,8.3,8.9,29.4,8.9,29.4s2.4,1.8,4.2,5.7
	c1.7,3.7,5.1,10.9-5.2,20.8c-7.7,7.5-22.6,18-42.3,17.3s-28.8-7.8-35.6-19.7c-6.7-11.6-7.3-25.6-5.8-34.3
	c-0.7-6.8,2.5-18.2,6.3-22.2c0.4-0.4,1.4-0.6,2-0.6c4.9,0.4,12.5,3.4,16.2,8.7"/>
<path class="st19" d="M510.6,266.7c-7.2-1.2-13.5,1.7-16,3.5"/>
<path class="st19" d="M511.1,270c-3.7,0-8.7,3-10.2,6.7"/>
<path class="st19" d="M538.1,280.9c0.3,3-0.7,9.3-0.7,9.3"/>
</svg>
